<?xml version="1.0" ?><!DOCTYPE svg  PUBLIC '-//W3C//DTD SVG 1.1//EN'  'http://www.w3.org/Graphics/SVG/1.1/DTD/svg11.dtd'>
<svg enable-background="new 0 0 530 530" height="100%" id="Layer_1" version="1.1" viewBox="0 0 530 530" width="100%"
xml:space="preserve" xmlns="http://www.w3.org/2000/svg" xmlns:xlink="http://www.w3.org/1999/xlink">
<g>
<path d="M480,0H256c-17.688,0-32,14.328-32,32s14.312,32,32,32h192v384H256c-17.688,0-32,14.328-32,32s14.312,32,32,
32h224   c17.688,0,32-14.328,32-32V32C512,14.328,497.688,0,480,0z"/><path d="M224,384l128-128L224,
128v96H28.591C12.788,224,0,238.328,0,256s12.788,32,28.591,32H224V384z"/>
</g></svg>