<?xml version="1.0" encoding="UTF-8" standalone="no"?>
<svg
   xmlns:osb="http://www.openswatchbook.org/uri/2009/osb"
   xmlns:dc="http://purl.org/dc/elements/1.1/"
   xmlns:cc="http://creativecommons.org/ns#"
   xmlns:rdf="http://www.w3.org/1999/02/22-rdf-syntax-ns#"
   xmlns:svg="http://www.w3.org/2000/svg"
   xmlns="http://www.w3.org/2000/svg"
   xmlns:xlink="http://www.w3.org/1999/xlink"
   xmlns:sodipodi="http://sodipodi.sourceforge.net/DTD/sodipodi-0.dtd"
   xmlns:inkscape="http://www.inkscape.org/namespaces/inkscape"
   enable-background="new 0 0 64 64"
   height="100%"
   id="Layer_1"
   version="1.1"
   viewBox="0 0 64 64"
   width="100%"
   xml:space="preserve"
   inkscape:version="0.91 r"
   sodipodi:docname="power_btn.svg"><metadata
     id="metadata9"><rdf:RDF><cc:Work
         rdf:about=""><dc:format>image/svg+xml</dc:format><dc:type
           rdf:resource="http://purl.org/dc/dcmitype/StillImage" /><dc:title></dc:title></cc:Work></rdf:RDF></metadata><defs
     id="defs7"><linearGradient
       id="linearGradient4137"
       osb:paint="solid"><stop
         style="stop-color:#2a2287;stop-opacity:1;"
         offset="0"
         id="stop4139" /></linearGradient><linearGradient
       inkscape:collect="always"
       xlink:href="#linearGradient4137"
       id="linearGradient4141"
       x1="0.66552542"
       y1="32.677966"
       x2="64.148034"
       y2="32.677966"
       gradientUnits="userSpaceOnUse" /></defs><sodipodi:namedview
     pagecolor="#ffffff"
     bordercolor="#666666"
     borderopacity="1"
     objecttolerance="10"
     gridtolerance="10"
     guidetolerance="10"
     inkscape:pageopacity="0"
     inkscape:pageshadow="2"
     inkscape:window-width="1301"
     inkscape:window-height="744"
     id="namedview5"
     showgrid="false"
     inkscape:zoom="3.6875"
     inkscape:cx="32"
     inkscape:cy="32"
     inkscape:window-x="65"
     inkscape:window-y="24"
     inkscape:window-maximized="1"
     inkscape:current-layer="Layer_1" /><path
     d="m 64.148034,32.677966 c 0,-17.352523 -14.239199,-31.4700677 -31.741254,-31.4700677 -17.502055,0 -31.74125458,14.1175447 -31.74125458,31.4700677 0,17.352524 14.23919958,31.470068 31.74125458,31.470068 17.502055,0 31.741254,-14.117544 31.741254,-31.470068 z m -28.625431,-0.04817 c 0,1.64918 -1.34759,2.986525 -3.012261,2.986525 -1.663392,0 -3.012261,-1.337345 -3.012261,-2.986525 l 0,-15.532214 c 0,-1.649181 1.348869,-2.986525 3.012261,-2.986525 1.663392,0 3.012261,1.336077 3.012261,2.986525 l 0,15.532214 z m 17.380593,0.100139 c 0,11.20454 -9.194044,20.320035 -20.496416,20.320035 -11.302373,0 -20.496417,-9.115495 -20.496417,-20.320035 0,-5.431775 2.133898,-10.53777 6.010458,-14.374872 0.588132,-0.583108 1.357819,-0.873394 2.128784,-0.873394 0.770965,0 1.543209,0.291553 2.13134,0.875929 1.176266,1.167483 1.174988,3.057512 -0.0026,4.223728 -2.734816,2.710184 -4.242225,6.314042 -4.242225,10.148609 0,7.909983 6.491192,14.345717 14.470616,14.345717 7.979423,0 14.470616,-6.435734 14.470616,-14.345717 0,-3.832032 -1.503573,-7.434623 -4.237111,-10.144807 -1.176265,-1.167482 -1.174987,-3.057511 0.0012,-4.224994 1.177543,-1.167483 3.083859,-1.164949 4.261402,0.0012 3.86889,3.838369 6.00023,8.941829 6.00023,14.368534 z"
     id="path3"
     inkscape:connector-curvature="0"
     style="fill-opacity:1;fill:url(#linearGradient4141)" /></svg>